# xmcd CD database file
#
# Track frame offsets:
#	150
#	13230
#	28098
#	44701
#	58131
#	70481
#	89541
#	105631
#
# Disc length: 1607 seconds
#
# Revision: 0
# Processed by: cddbd v1.5.2PL0 Copyright (c) Steve Scherf et al.
# Submitted via: CDex 1.70beta2
#
DISCID=75064508
DTITLE=あにー - セツナライト
DYEAR=2008
DGENRE=東方アレンジ
TTITLE0=ナイフ投げの少女（メイドと血の懐中時計）
TTITLE1=Strawberry Song（亡き王女の為のセプテット）
TTITLE2=nknown Girl（U.N.オーエンは彼女なのか？）
TTITLE3=ちるのちるのちるの（おてんば恋娘）
TTITLE4=ダンスホールでつかまえて（妖魔夜行)
TTITLE5=Setsuna-Light（ラクトガール/恋色マスタースパーク）
TTITLE6=恋色少女（恋色マスタースパーク/ラクトガール）
TTITLE7=レイラに捧ぐ（幽霊楽団）
EXTD=YEAR: 2008
EXTT0=
EXTT1=
EXTT2=
EXTT3=
EXTT4=
EXTT5=
EXTT6=
EXTT7=
PLAYORDER=
